<svg xmlns="http://www.w3.org/2000/svg" viewBox="0 0 68.55 26.6"><defs><style>.cls-1{fill:#7889ff;}</style></defs><g id="图层_2" data-name="图层 2"><g id="图层_1-2" data-name="图层 1"><path class="cls-1" d="M24.82,5.43a13.63,13.63,0,0,0-2.61-2.59,8,8,0,0,0-.76-.54l-.4-.25-.19-.12-.21-.12-.41-.22-.42-.21-.43-.2L19,1A14.2,14.2,0,0,0,15.33.1,16.55,16.55,0,0,0,13.47,0c-.31,0-.62,0-.93.06l-.46,0-.46.07A13.56,13.56,0,0,0,5.09,3.09L5,3.21l-.14.12-.28.24c-.18.16-.36.34-.54.51l-.26.27-.25.27c-.16.19-.34.38-.49.58A13.92,13.92,0,0,0,1.34,7.77,13.26,13.26,0,0,0,0,13.83a12.75,12.75,0,0,0,3.47,8.42,12.14,12.14,0,0,0,2.26,1.88l.79.5c.29.16.58.34.9.5a13,13,0,0,0,2,.86,10.15,10.15,0,0,0,2,.44,3.42,3.42,0,0,0,.45,0,2.84,2.84,0,0,0,.41,0,4.65,4.65,0,0,0,.69-.05,14.65,14.65,0,0,1-2.29-.3,24.82,24.82,0,0,0,3.44.21l.43,0,.43,0c.29,0,.58-.05.86-.1l.43-.08.42-.09.21-.05.21-.06.41-.13c0-.07,0-.12,0-.19l.19-.13.39-.19a13.78,13.78,0,0,1-2.53.68,10.44,10.44,0,0,1-2.63.12v-.21a18.5,18.5,0,0,0,2.58-.14,10.26,10.26,0,0,0,2.49-.65l-.1-.26s.15-.12.39-.22l.45-.2-.14.06-.35.15-.38.14-.37.13-.37.12-.62.17-.08-.28a10.46,10.46,0,0,1,1.31-.47c0-.07.11-.2.17-.28s0-.14-.3-.05a11.85,11.85,0,0,1-1.94.53c.16,0,.32-.08.47-.12l.23-.06.21-.07.4-.14.36-.15.33-.16.29-.15.47-.31a3.34,3.34,0,0,0,.56-.5c.1-.14.14-.23.11-.27a1.35,1.35,0,0,1-.57.26,2,2,0,0,0-.59.24l.46-.28h-.05a.38.38,0,0,1-.39-.36,10.6,10.6,0,0,1-2.88.84,11,11,0,0,1-3.91-.17,10.3,10.3,0,0,1-3.56-1.55A10.13,10.13,0,0,1,5,18.93a9.88,9.88,0,0,1-1.49-3.52,10,10,0,0,1-.2-1.9,10.21,10.21,0,0,1,.18-1.91A9.94,9.94,0,0,1,4.91,8,10.1,10.1,0,0,1,7.63,5.27a10.51,10.51,0,0,1,3.6-1.6,10.65,10.65,0,0,1,7.71,1.1,10.27,10.27,0,0,1,4.78,6,10,10,0,0,1-.35,6.54,3.12,3.12,0,0,1,.39.15l.09-.19a.89.89,0,0,1,.08-.17l.07-.17.13-.33c.09-.3.12-.13.16.05s.09.36.26.07.11-.34.16-.56l.08-.33,0-.18,0-.18.06-.35c0-.12,0-.23,0-.34s0-.22,0-.31l0-.27c.13-.32.23-.15.33,0s.19.35.33,0a1.55,1.55,0,0,0,0-.15.9.9,0,0,0,0-.19c0-.14,0-.3.05-.49s0-.38,0-.58,0-.42,0-.64c-.09-.85-.29-1.69-.33-2s-.1-.42-.12-.53,0-.13,0-.1a2.89,2.89,0,0,1,.31.75l.06.17.05.17.1.38c0,.13.06.27.08.41s0,.14.05.22l0,.22c0,.14,0,.29.06.44l0,.44c0,.15,0,.3,0,.44s0,.28,0,.41c.08-.35.08,0,.07.44,0,.22,0,.46,0,.65s0,.32,0,.33.29,0,.47-.31c0-.09.08-.2.13-.35l.06-.23a2.47,2.47,0,0,0,.06-.29l.06-.34c0-.13,0-.26,0-.41a7.91,7.91,0,0,0,0-1c0-.38.06-.39.16-.3s.21.27.28.26A13.44,13.44,0,0,0,24.82,5.43Z"/><path class="cls-1" d="M18.91,24.35a3.14,3.14,0,0,0,.37-.18Z"/><ellipse class="cls-1" cx="23.81" cy="20.97" rx="2.5" ry="2.42"/><path class="cls-1" d="M13.72,26.6l-1,0A13.75,13.75,0,0,1,3.35,22,13,13,0,0,1,4.76,3.24a14.06,14.06,0,0,1,16.7-.92A13.49,13.49,0,0,1,26,7.39a1.82,1.82,0,0,1-.85,2.46A1.92,1.92,0,0,1,22.61,9a9.83,9.83,0,0,0-3.29-3.67A10.26,10.26,0,0,0,14.44,3.7,10,10,0,0,0,7.24,6a9.43,9.43,0,0,0-1,13.58A10.15,10.15,0,0,0,18,22a1.92,1.92,0,0,1,2.52.88,1.8,1.8,0,0,1-.9,2.44A14,14,0,0,1,13.72,26.6Z"/><path class="cls-1" d="M34.87,4.73a.53.53,0,0,0,.53-.53V3a.27.27,0,0,1,.27-.27h1.14a.27.27,0,0,1,.27.27V4.21a.52.52,0,0,0,.52.52h.94a.27.27,0,0,1,.27.27V6a.27.27,0,0,1-.27.26h-.93a.54.54,0,0,0-.53.54V7.7a.53.53,0,0,0,.52.53h1.18a.27.27,0,0,1,.27.26v1a.27.27,0,0,1-.27.27h-1a.27.27,0,0,0-.26.27v1.29a.27.27,0,0,0,.26.27h.93c.14,0,.26,1,.26,1.17h0a.27.27,0,0,1-.26.27h-.93a.27.27,0,0,0-.26.27v2.29l.28.1a29.75,29.75,0,0,0,6.62.44c1.67,0,3,0,3.86-.06a.26.26,0,0,1,.27.31l-.16.89a.52.52,0,0,1-.52.44H44.8c-4.22,0-6.85-.22-7.9-.68a5.47,5.47,0,0,1-1.42-1,.53.53,0,0,0-.89.24q-.21.86-.48,1.65l-1-.88a.5.5,0,0,1-.15-.53,24.51,24.51,0,0,0,.89-6l1.21.13a.26.26,0,0,1,.23.28c0,.82-.07,1.62-.16,2.38a.28.28,0,0,0,0,.18,6.87,6.87,0,0,0,.76.95V10.28a.52.52,0,0,0-.52-.52H33.65a.27.27,0,0,1-.26-.27v-1a.26.26,0,0,1,.26-.26h1.22a.54.54,0,0,0,.53-.54V6.76a.52.52,0,0,0-.52-.53h-1A.26.26,0,0,1,33.61,6V5a.27.27,0,0,1,.26-.27Zm13.56-.39V5.51a17.75,17.75,0,0,1-1,5.57.5.5,0,0,0,0,.36c.45,1,.85,2.1,1.23,3.16a.27.27,0,0,1-.15.34l-1.09.47c-.24-.66-.47-1.3-.7-1.91a.27.27,0,0,0-.48,0,11.42,11.42,0,0,1-1.67,2.1l-.74-.84v1.06H42.51a.27.27,0,0,1-.27-.27V14.24a.26.26,0,0,0-.35-.25c-.94.3-1.91.59-2.9.85a.28.28,0,0,1-.33-.2l-.31-1.19c.41-.06.78-.15,1.16-.23V4.65h-.83V3.45a.27.27,0,0,1,.26-.27h5.5V4.34ZM42.24,6.41V4.65H41V6.41Zm0,3V7.78H41V9.44Zm0,1.37H41v2l1-.32a.28.28,0,0,0,.19-.26Zm2.13,2.27-.57.22v.85a11,11,0,0,0,1.81-2.83.51.51,0,0,0,0-.45c-.52-1.19-1.07-2.3-1.63-3.31l1.13-.36a.26.26,0,0,1,.32.13c.33.61.64,1.22.94,1.84a17.89,17.89,0,0,0,.49-2.75.54.54,0,0,0-.53-.59H44.22V4.65H43.8v7.2l.57-.24Z"/><path class="cls-1" d="M60.63,17.9a14.52,14.52,0,0,1-3-.28,4.08,4.08,0,0,1-1.93-1.15,1,1,0,0,0-.69-.42q-.51,0-1.8,2.25l-.6-.51a1.14,1.14,0,0,1-.17-1.57,7.54,7.54,0,0,1,1.29-1.37,1.09,1.09,0,0,0,.43-.87V11.19A1.25,1.25,0,0,0,52.91,10h-1V8.68a.28.28,0,0,1,.28-.28h2.49A1.25,1.25,0,0,1,56,9.59v5.12a1.28,1.28,0,0,1,.22.2,4.74,4.74,0,0,0,1.29,1,6.32,6.32,0,0,0,2.43.43c1.05,0,2.3,0,3.74,0l2.76,0c.92,0,1.63-.07,2.14-.1l-.23.82a1.27,1.27,0,0,1-1.26.9H63.92C62.9,17.94,61.81,17.92,60.63,17.9ZM55.38,4.49a1.4,1.4,0,0,1,0,2.08h0a.27.27,0,0,1-.39,0,17.5,17.5,0,0,0-2.5-2.28.28.28,0,0,1,0-.43v0a1.65,1.65,0,0,1,2.16,0C54.89,4,55.14,4.27,55.38,4.49Zm4,3.66a10.34,10.34,0,0,1-1.45,4.46.29.29,0,0,1-.39.07l-1-.65a.26.26,0,0,1-.07-.38,8.67,8.67,0,0,0,1.29-3.74A.28.28,0,0,1,58,7.67l1.07.16A.27.27,0,0,1,59.34,8.15ZM57.19,5.84V4.78a.28.28,0,0,1,.27-.28H61.6a15.17,15.17,0,0,0-.68-1.45l.87-.13a1.3,1.3,0,0,1,1.44.77v0a1.32,1.32,0,0,0,1.23.79h3.08a.28.28,0,0,1,.28.28V6.12H66.49a1.25,1.25,0,0,0-1.3,1.19v7a1.34,1.34,0,0,1-1.54,1.48h-1.2a.28.28,0,0,1-.27-.21l-.35-1.39a7.39,7.39,0,0,0,1.2.12c.31,0,.47-.15.47-.43V6.39a.27.27,0,0,0-.28-.27h-1a.27.27,0,0,0-.28.27V8.11a9.86,9.86,0,0,1-2.06,6.54,1.38,1.38,0,0,1-1.88.14l-.46-.37c1.69-1.3,2.55-3.41,2.58-6.31v-.8a1.25,1.25,0,0,0-1.3-1.19h-1.4A.28.28,0,0,1,57.19,5.84Zm10.86,7.31L67,13.41a.29.29,0,0,1-.34-.22c-.3-1.57-.65-3.1-1.08-4.58a.27.27,0,0,1,.18-.34l1-.31a.28.28,0,0,1,.35.18,46.94,46.94,0,0,1,1.17,4.68A.28.28,0,0,1,68.05,13.15Z"/><path class="cls-1" d="M41.45,24.34a1.15,1.15,0,0,1-.58.44,1.73,1.73,0,0,1-.71.14,1.69,1.69,0,0,1-1-.37.84.84,0,0,1-.37-.79v-2.6a.49.49,0,0,1,.54-.49h.12c.36,0,.43.22.43.49v2.38a.62.62,0,0,0,.25.45,1,1,0,0,0,.57.13c.49,0,.74-.23.74-.69V21.16a.58.58,0,0,1,.64-.49h0a.5.5,0,0,1,.56.49v3.18a.58.58,0,0,1-.64.49h0a.48.48,0,0,1-.54-.49h0Z"/><path class="cls-1" d="M49.4,19.88h0a.57.57,0,0,1-.6.54h-.2a.56.56,0,0,1-.59-.54h0a.57.57,0,0,1,.59-.54h.2A.58.58,0,0,1,49.4,19.88Zm0,1.58v3c0,.24-.27.43-.6.43h-.2c-.33,0-.59-.19-.59-.43v-3c0-.24.26-.43.59-.43h.2C49.13,21,49.4,21.22,49.4,21.46Z"/><path class="cls-1" d="M51.61,24.83h0a.44.44,0,0,1-.45-.43v-.15a.44.44,0,0,1,.45-.43h0a.44.44,0,0,1,.45.43v.15A.44.44,0,0,1,51.61,24.83Z"/><path class="cls-1" d="M54.16,20.77a.56.56,0,0,1,.61.49h0a1.15,1.15,0,0,1,.55-.45,1.81,1.81,0,0,1,.76-.15,1.55,1.55,0,0,1,1,.28,1.13,1.13,0,0,1,.34.9v2.6c0,.27-.27.39-.61.39H56.7c-.34,0-.4-.12-.4-.39V22.06a.62.62,0,0,0-.24-.45.88.88,0,0,0-.53-.13.61.61,0,0,0-.7.69v2.27a.56.56,0,0,1-.61.49h-.11a.46.46,0,0,1-.5-.49V21.26a.55.55,0,0,1,.6-.49Z"/><path class="cls-1" d="M62.06,21a1.64,1.64,0,0,1,.69.56,1.79,1.79,0,0,1,.32.79c0,.17.11.66,0,.72s-2.84,0-2.84,0a.88.88,0,0,0,.42.8,1.16,1.16,0,0,0,.58.14,1,1,0,0,0,.58-.17c.08-.07.09-.15.22-.27a.91.91,0,0,1,1,0c.08.08-.09.42-.32.65a2,2,0,0,1-1.51.56,2.29,2.29,0,0,1-1.42-.47,1.79,1.79,0,0,1-.61-1.52,1.87,1.87,0,0,1,2-2.05A2.4,2.4,0,0,1,62.06,21Zm-1.58.85-.11.08a.66.66,0,0,0-.17.29c0,.06-.06.18,0,.23a7.82,7.82,0,0,0,1.81,0c.21,0-.11-.46-.28-.6a.91.91,0,0,0-.62-.21A1.16,1.16,0,0,0,60.48,21.89Z"/><path class="cls-1" d="M64.41,21.69h0a.36.36,0,0,1-.17-.15.44.44,0,0,1-.07-.27.33.33,0,0,1,.17-.24.74.74,0,0,1,.37-.07l.39,0h.08a.07.07,0,0,0,0-.08c0-.23-.08-.51.06-.72a.83.83,0,0,1,.66-.3.79.79,0,0,1,.68.32c.13.23,0,.54.06.79a3.25,3.25,0,0,0,.54,0,.75.75,0,0,1,.5.11.4.4,0,0,1-.12.63,1.23,1.23,0,0,1-.2,0c-.35.05-.67-.09-.73.06a1.14,1.14,0,0,0,0,.32v1.7a.13.13,0,0,0,.1.15,1.42,1.42,0,0,0,.58,0,.32.32,0,0,1,.44.33.78.78,0,0,1,0,.26.34.34,0,0,1-.12.22,1.15,1.15,0,0,1-.51.14,4.74,4.74,0,0,1-.65.05,1.7,1.7,0,0,1-1.08-.27c-.3-.27-.27-.74-.27-1.11s0-.62,0-.93c0-.1,0-.21,0-.32v-.44a.48.48,0,0,0,0-.12c-.06-.07-.5,0-.63,0A.39.39,0,0,1,64.41,21.69Z"/><path class="cls-1" d="M36.57,24.74l-.3-.24a2.1,2.1,0,0,1-1.45.54,2.17,2.17,0,0,1-1.21-.36,2.13,2.13,0,0,1-.72-.75c0-.09-.09-.18-.13-.27a1.59,1.59,0,0,1-.08-.33,10.69,10.69,0,0,1-.06-1.42,10.85,10.85,0,0,1,.06-1.44,1.46,1.46,0,0,1,.21-.58,2.2,2.2,0,0,1,1.93-1.11,2.12,2.12,0,0,1,1.22.35,2,2,0,0,1,.71.76,1.46,1.46,0,0,1,.21.58A10.85,10.85,0,0,1,37,21.91,13,13,0,0,1,37,23.25a1.42,1.42,0,0,1-.18.59m-.92-.76c.17.15.18.13.17.15a5.79,5.79,0,0,0,.09-1.29,8.27,8.27,0,0,0-.06-1.24,1.2,1.2,0,0,0-.25-.52,1.13,1.13,0,0,0-.37-.31,1.34,1.34,0,0,0-.58-.13,1.26,1.26,0,0,0-.57.13,1.22,1.22,0,0,0-.39.31,1.09,1.09,0,0,0-.24.52,6.78,6.78,0,0,0-.07,1.24,6.72,6.72,0,0,0,.07,1.23,1.09,1.09,0,0,0,.24.52,1.22,1.22,0,0,0,.39.31,1.15,1.15,0,0,0,.57.14,1.1,1.1,0,0,0,.69-.22s-.08-.06-.09-.07l-.1-.08"/><rect class="cls-1" x="34.85" y="23.37" width="2.57" height="1.11" rx="0.48" transform="translate(52.17 64.18) rotate(-145.23)"/><path class="cls-1" d="M45.1,25.43a2.52,2.52,0,0,1-1.46-.55.51.51,0,0,1-.1-.77.71.71,0,0,1,.89-.08,1,1,0,0,0,.77.28c.12,0,.2,0,.22-.44,0-.19,0-.37,0-.56,0-.45,0-.89,0-1.34s0-.67,0-1V19.42a.64.64,0,0,1,1.26,0V21c0,.33,0,.66,0,1s0,.92,0,1.37c0,.2,0,.39,0,.59a1.42,1.42,0,0,1-1.09,1.45A1.69,1.69,0,0,1,45.1,25.43Z"/></g></g></svg>